<?xml version="1.0" encoding="UTF-8"?>
<svg width="254px" height="107px" viewBox="0 0 254 107" version="1.1" xmlns="http://www.w3.org/2000/svg" xmlns:xlink="http://www.w3.org/1999/xlink">
    <!-- Generator: Sketch 49.1 (51147) - http://www.bohemiancoding.com/sketch -->
    <title>choicerio_logo</title>
    <desc>Created with Sketch.</desc>
    <defs>
        <polygon id="path-1" points="0 106.377907 253.688783 106.377907 253.688783 0.430830523 0 0.430830523"></polygon>
        <polygon id="path-3" points="0 106.377907 253.688783 106.377907 253.688783 0.430830523 0 0.430830523"></polygon>
        <polygon id="path-5" points="0 106.377907 253.688783 106.377907 253.688783 0.430830523 0 0.430830523"></polygon>
        <polygon id="path-7" points="0 106.377907 253.688783 106.377907 253.688783 0.430830523 0 0.430830523"></polygon>
        <polygon id="path-9" points="0 106.377907 253.688783 106.377907 253.688783 0.430830523 0 0.430830523"></polygon>
        <polygon id="path-11" points="0 106.377907 253.688783 106.377907 253.688783 0.430830523 0 0.430830523"></polygon>
        <polygon id="path-13" points="0 106.377907 253.688783 106.377907 253.688783 0.430830523 0 0.430830523"></polygon>
    </defs>
    <g id="Page-1" stroke="none" stroke-width="1" fill="none" fill-rule="evenodd">
        <g id="choicerio_logo">
            <path d="M184,73 L141.490891,107 L141,73 L141,0 L254,0 L254,73 L184,73 Z" id="Combined-Shape" fill="#24B3A0" fill-rule="nonzero"></path>
            <g id="Group-17">
                <path d="M30.8291832,45.2057703 C29.2565221,51.7772655 23.4364463,57.1493498 15.5720716,57.1493498 C6.76388632,57.1493498 0,50.2645716 0,41.6596627 C0,33.1590042 6.65854316,26.2752898 15.36192,26.2752898 C23.0696168,26.2752898 29.3089263,31.3340912 30.7773137,38.4268381 L21.9680589,38.4268381 C21.0253179,36.4444859 19.2949095,34.3578832 15.6774147,34.3578832 C11.5342737,34.1499144 8.75578105,37.5401783 8.75578105,41.7123198 C8.75578105,45.9365865 11.5342737,49.0651607 15.6774147,49.0651607 C19.2949095,49.0651607 21.0253179,46.97909 21.9680589,45.2057703 L30.8291832,45.2057703 Z" id="Fill-3" fill="#212121" fill-rule="nonzero"></path>
                <path d="M32.8255697,17.6173516 L41.5289465,17.6173516 L41.5289465,29.9258073 L41.6332202,29.9258073 C43.1016076,27.3179529 46.0378476,26.2749175 49.1318349,26.2749175 C51.9103276,26.2749175 55.2133971,27.2652958 57.0486139,29.4561488 C59.5126813,32.3240972 59.7747023,34.8798264 59.7747023,40.04341 L59.7747023,56.2101924 L51.0713255,56.2101924 L51.0713255,40.4604114 C51.0713255,39.0519679 51.0713255,34.4106998 46.4046771,34.4106998 C41.5289465,34.4106998 41.5289465,38.7392169 41.5289465,40.1465966 L41.5289465,56.2101924 L32.8255697,56.2101924 L32.8255697,17.6173516 Z" id="Fill-5" fill="#212121" fill-rule="nonzero"></path>
                <path d="M77.5001592,49.0131419 C81.2754013,49.0131419 84.4741971,45.9366929 84.4741971,41.7118943 C84.4741971,37.4876276 81.2754013,34.4106466 77.5001592,34.4106466 C73.7249171,34.4106466 70.5271907,37.4876276 70.5271907,41.7118943 C70.5271907,45.9366929 73.7249171,49.0131419 77.5001592,49.0131419 M77.5001592,26.3275214 C88.0916918,26.3275214 93.1775739,34.6191473 93.1775739,41.7118943 C93.1775739,48.8046412 88.0916918,57.0967991 77.5001592,57.0967991 C66.909696,57.0967991 61.8238139,48.8046412 61.8238139,41.7118943 C61.8238139,34.6191473 66.909696,26.3275214 77.5001592,26.3275214" id="Fill-7" fill="#212121" fill-rule="nonzero"></path>
                <g id="Fill-9-Clipped">
                    <mask id="mask-2" fill="white">
                        <use xlink:href="#path-1"></use>
                    </mask>
                    <g id="path-1"></g>
                    <path d="M95.3302105,56.210086 L104.034122,56.210086 L104.034122,27.2651894 L95.3302105,27.2651894 L95.3302105,56.210086 Z M95.3302105,24.1892723 L104.034122,24.1892723 L104.034122,17.6177771 L95.3302105,17.6177771 L95.3302105,24.1892723 Z" id="Fill-9" fill="#212121" fill-rule="nonzero" mask="url(#mask-2)"></path>
                </g>
                <g id="Fill-11-Clipped">
                    <mask id="mask-4" fill="white">
                        <use xlink:href="#path-3"></use>
                    </mask>
                    <g id="path-1"></g>
                    <path d="M138.792498,45.2057703 C137.219837,51.7772655 131.399761,57.1493498 123.535387,57.1493498 C114.727201,57.1493498 107.963315,50.2645716 107.963315,41.6596627 C107.963315,33.1590042 114.621858,26.2752898 123.325235,26.2752898 C131.032932,26.2752898 137.272241,31.3340912 138.740629,38.4268381 L129.931374,38.4268381 C128.988098,36.4444859 127.25769,34.3578832 123.64073,34.3578832 C119.497589,34.1499144 116.719096,37.5401783 116.719096,41.7123198 C116.719096,45.9365865 119.497589,49.0651607 123.64073,49.0651607 C127.25769,49.0651607 128.988098,46.97909 129.931374,45.2057703 L138.792498,45.2057703 Z" id="Fill-11" fill="#212121" fill-rule="nonzero" mask="url(#mask-4)"></path>
                </g>
                <g id="Fill-12-Clipped">
                    <mask id="mask-6" fill="white">
                        <use xlink:href="#path-5"></use>
                    </mask>
                    <g id="path-1"></g>
                    <path d="M162.955438,38.530397 C162.588608,36.8092025 160.8582,33.5763779 156.349299,33.5763779 C151.840933,33.5763779 150.110524,36.8092025 149.742625,38.530397 L162.955438,38.530397 Z M170.663135,47.1358378 C169.247686,50.3691943 167.202318,52.8722665 164.738785,54.5413358 C162.326053,56.2625304 159.442752,57.1491902 156.454107,57.1491902 C148.11756,57.1491902 141.039248,50.4213195 141.039248,41.8158787 C141.039248,33.7327534 147.436305,26.2751303 156.296895,26.2751303 C165.158019,26.2751303 171.658815,33.2636269 171.658815,42.0770365 C171.658815,43.2243222 171.554006,43.6939806 171.449733,44.371076 L149.638352,44.371076 C150.162928,47.8134651 153.046764,49.8474107 156.454107,49.8474107 C159.128326,49.8474107 160.543775,48.6479998 161.749606,47.1358378 L170.663135,47.1358378 Z" id="Fill-12" fill="#212121" fill-rule="nonzero" mask="url(#mask-6)"></path>
                </g>
                <g id="Fill-13-Clipped">
                    <mask id="mask-8" fill="white">
                        <use xlink:href="#path-7"></use>
                    </mask>
                    <g id="path-1"></g>
                    <path d="M173.655362,27.2654022 L181.834696,27.2654022 L181.834696,30.3429151 L181.939505,30.3429151 C182.673164,28.9344716 184.19449,26.2750239 189.227968,26.2750239 L189.227968,34.984715 C185.189635,35.0889654 182.358739,35.9235001 182.358739,40.3036104 L182.358739,56.2102988 L173.655362,56.2102988 L173.655362,27.2654022 Z" id="Fill-13" fill="#212121" fill-rule="nonzero" mask="url(#mask-8)"></path>
                </g>
                <g id="Fill-14-Clipped">
                    <mask id="mask-10" fill="white">
                        <use xlink:href="#path-9"></use>
                    </mask>
                    <g id="path-1"></g>
                    <polygon id="Fill-14" fill="#FFFFFF" fill-rule="nonzero" mask="url(#mask-10)" points="186.718341 56.210086 195.789617 56.210086 195.789617 47.3440194 186.718341 47.3440194"></polygon>
                </g>
                <g id="Fill-15-Clipped">
                    <mask id="mask-12" fill="white">
                        <use xlink:href="#path-11"></use>
                    </mask>
                    <g id="path-1"></g>
                    <path d="M199.834901,56.210086 L208.538813,56.210086 L208.538813,27.2651894 L199.834901,27.2651894 L199.834901,56.210086 Z M199.834901,24.1892723 L208.538813,24.1892723 L208.538813,17.6177771 L199.834901,17.6177771 L199.834901,24.1892723 Z" id="Fill-15" fill="#FFFFFF" fill-rule="nonzero" mask="url(#mask-12)"></path>
                </g>
                <g id="Fill-16-Clipped">
                    <mask id="mask-14" fill="white">
                        <use xlink:href="#path-13"></use>
                    </mask>
                    <g id="path-1"></g>
                    <path d="M228.196434,49.0131419 C231.971141,49.0131419 235.169403,45.9366929 235.169403,41.7118943 C235.169403,37.4876276 231.971141,34.4106466 228.196434,34.4106466 C224.420123,34.4106466 221.223466,37.4876276 221.223466,41.7118943 C221.223466,45.9366929 224.420123,49.0131419 228.196434,49.0131419 M228.196434,26.3275214 C238.786897,26.3275214 243.87171,34.6191473 243.87171,41.7118943 C243.87171,48.8046412 238.786897,57.0967991 228.196434,57.0967991 C217.603832,57.0967991 212.519554,48.8046412 212.519554,41.7118943 C212.519554,34.6191473 217.603832,26.3275214 228.196434,26.3275214" id="Fill-16" fill="#FFFFFF" fill-rule="nonzero" mask="url(#mask-14)"></path>
                </g>
            </g>
        </g>
    </g>
</svg>