<?xml version="1.0" standalone="no"?>
<!DOCTYPE svg PUBLIC "-//W3C//DTD SVG 1.1//EN" "http://www.w3.org/Graphics/SVG/1.1/DTD/svg11.dtd" >
<svg xmlns="http://www.w3.org/2000/svg">
<metadata>Generated by IcoMoon</metadata>
<defs>
<font id="fonticons" horiz-adv-x="1024">
<font-face units-per-em="1024" ascent="960" descent="-64" />
<missing-glyph horiz-adv-x="1024" />
<glyph unicode="&#x20;" horiz-adv-x="512" d="" />
<glyph unicode="&#xe900;" glyph-name="chevron-down" horiz-adv-x="1536" d="M1483.501 687.583l-732.548-732.548-195.346 195.346 732.548 732.548 195.346-195.346zM747.244-41.971l-732.548 732.548 195.346 195.346 732.548-732.548-195.346-195.346z" />
<glyph unicode="&#xe901;" glyph-name="chevron-right-big" horiz-adv-x="561" d="M45.459 957.752l512.131-512.131-40.908-40.908-512.131 512.131 40.908 40.908zM557.59 449.712l-512.12-512.12-40.908 40.908 512.12 512.12 40.908-40.908z" />
<glyph unicode="&#xe902;" glyph-name="chevron-left-big" horiz-adv-x="561" d="M515.716-61.752l-512.131 512.131 40.908 40.908 512.131-512.131-40.908-40.908zM3.585 446.288l512.12 512.12 40.908-40.908-512.12-512.12-40.908 40.908z" />
<glyph unicode="&#xe903;" glyph-name="chevron-right" horiz-adv-x="683" d="M181.611 960l488.366-488.366-130.231-130.231-488.366 488.366 130.231 130.231zM667.981 469.162l-488.366-488.366-130.231 130.231 488.366 488.366 130.231-130.231z" />
<glyph unicode="&#xe904;" glyph-name="arrow-up" horiz-adv-x="2048" d="M1024 960l1024-1024h-2048z" />
<glyph unicode="&#xe905;" glyph-name="arrow-down" horiz-adv-x="2048" d="M1024-64l-1024 1024h2048z" />
<glyph unicode="&#xe906;" glyph-name="times" d="M26.375 137.783l818.705 818.705 157.443-157.443-818.705-818.705-157.443 157.443zM845.080-19.66l-818.705 818.705 157.443 157.443 818.705-818.705-157.443-157.443z" />
<glyph unicode="&#xe907;" glyph-name="statistics" horiz-adv-x="1749" d="M0 576h341.333v-640h-341.333v640zM938.667 405.333h341.333v-469.333h-341.333v469.333zM1408 746.667h341.333v-810.667h-341.333v810.667zM469.333 960h341.333v-1024h-341.333v1024z" />
<glyph unicode="&#xe908;" glyph-name="plus" d="M955.351 705.005c-45.786 78.439-107.892 140.544-186.333 186.328-78.456 45.781-164.101 68.667-257.002 68.667-92.891 0-178.562-22.886-257.004-68.667-78.446-45.776-140.552-107.882-186.338-186.328-45.788-78.451-68.674-164.122-68.674-257.005 0-92.888 22.893-178.545 68.667-257.001 45.784-78.439 107.889-140.544 186.336-186.333 78.451-45.779 164.115-68.667 257.004-68.667s178.562 22.888 257.009 68.667c78.442 45.772 140.545 107.893 186.326 186.333 45.774 78.448 68.658 164.117 68.658 257.001 0.002 92.893-22.884 178.566-68.649 257.005zM810.685 405.334c0-11.554-4.229-21.567-12.675-29.998-8.453-8.439-18.449-12.675-29.999-12.675h-170.672v-170.655c0-11.554-4.233-21.557-12.675-30.015-8.437-8.437-18.44-12.658-29.999-12.658h-85.33c-11.554 0-21.555 4.222-29.999 12.658-8.446 8.455-12.67 18.459-12.67 30.015v170.655h-170.667c-11.554 0-21.55 4.233-29.999 12.675-8.444 8.43-12.665 18.442-12.665 29.998v85.339c0 11.554 4.224 21.555 12.665 29.998 8.446 8.446 18.442 12.67 29.999 12.67h170.674v170.667c0 11.556 4.224 21.55 12.67 29.998 8.444 8.444 18.442 12.665 29.999 12.665h85.34c11.554 0 21.56-4.224 29.999-12.665 8.439-8.446 12.675-18.442 12.675-29.998v-170.667h170.656c11.554 0 21.557-4.224 29.999-12.67 8.446-8.441 12.675-18.442 12.675-29.998v-85.339z" />
<glyph unicode="&#xe909;" glyph-name="person" horiz-adv-x="755" d="M377.266 474.947c119.054 0 215.576 108.582 215.576 242.525 0 133.946-31.689 242.528-215.576 242.528s-215.582-108.582-215.582-242.528c0-133.943 96.522-242.525 215.582-242.525zM754.104 81.305c-3.699 231.86-34.184 297.928-267.459 339.748 0 0-32.837-41.564-109.374-41.564s-109.379 41.564-109.379 41.564c-230.73-41.364-263.068-106.452-267.32-332.216-0.349-18.435-0.51-19.404-0.573-17.264 0.014-4.010 0.031-11.427 0.031-24.36 0 0 55.537-111.214 377.24-111.214 321.698 0 377.24 111.214 377.24 111.214 0 8.309 0.006 14.088 0.014 18.018-0.062-1.323-0.187 1.242-0.422 16.073z" />
<glyph unicode="&#xe90a;" glyph-name="question" d="M0 209.067h1024v750.933h-1024zM0 209.067l4.676-273.067 404.924 273.067z" />
<glyph unicode="&#xe90b;" glyph-name="candidates" horiz-adv-x="1950" d="M975.241 448c121.18 0 219.425 114.614 219.425 255.999 0 141.388-32.255 256.001-219.425 256.001s-219.432-114.614-219.432-256.001c0-141.385 98.245-255.999 219.432-255.999zM1364.897 89.377c-3.825 244.741-35.346 314.479-276.556 358.623 0 0-33.954-43.873-113.094-43.873s-113.1 43.873-113.1 43.873c-238.577-43.662-272.016-112.366-276.412-350.672-0.361-19.459-0.528-20.482-0.592-18.223 0.015-4.232 0.032-12.061 0.032-25.713 0 0 57.426-117.392 390.072-117.392 332.64 0 390.072 117.392 390.072 117.392 0 8.771 0.006 14.87 0.015 19.019-0.064-1.397-0.193 1.311-0.437 16.966zM1731.049 228.571c67.322 0 121.903 65.494 121.903 146.285 0 80.793-17.92 146.287-121.903 146.287s-121.906-65.494-121.906-146.287c0-80.791 54.581-146.285 121.906-146.285zM1950.231 23.644c-2.152 139.852-19.882 179.702-155.563 204.927 0 0-19.099-25.071-63.615-25.071s-63.619 25.071-63.619 25.071c-134.2-24.95-153.009-64.209-155.482-200.384-0.203-11.12-0.297-11.704-0.333-10.413 0.008-2.419 0.018-6.892 0.018-14.693 0 0 32.302-67.081 219.415-67.081 187.11 0 219.415 67.081 219.415 67.081 0 5.012 0.003 8.497 0.008 10.868-0.036-0.798-0.109 0.749-0.246 9.695zM219.43 228.571c67.322 0 121.903 65.494 121.903 146.285 0 80.793-17.92 146.287-121.903 146.287s-121.906-65.494-121.906-146.287c0-80.791 54.581-146.285 121.906-146.285zM438.611 23.644c-2.152 139.852-19.882 179.702-155.563 204.927 0 0-19.099-25.071-63.615-25.071s-63.619 25.071-63.619 25.071c-134.2-24.95-153.009-64.209-155.482-200.384-0.203-11.12-0.297-11.704-0.333-10.413 0.008-2.419 0.018-6.892 0.018-14.693 0 0 32.302-67.081 219.415-67.081 187.11 0 219.415 67.081 219.415 67.081 0 5.012 0.003 8.497 0.008 10.868-0.036-0.798-0.109 0.749-0.246 9.695z" />
<glyph unicode="&#xe90c;" glyph-name="questions" horiz-adv-x="1743" d="M718.979 219.234h1024v740.766h-1024zM718.979 219.234l4.726-283.234 409.232 283.234zM0 66.723h435.745v305.021h-435.745zM0 66.723l1.99-130.723 172.308 130.723z" />
<glyph unicode="&#xe90d;" glyph-name="lock" horiz-adv-x="755" d="M733.567 582.737h-62.877v83.837c0 161.797-131.628 293.426-293.426 293.426s-293.426-131.629-293.426-293.426v-83.837h-62.877c-11.585 0-20.96-9.375-20.96-20.96v-523.977c0-46.236 37.599-83.835 83.837-83.835h586.854c46.236 0 83.835 37.599 83.835 83.837v523.975c0 11.585-9.375 20.96-20.96 20.96zM440.019 144.909c0.654-5.914-1.248-11.85-5.219-16.293-3.971-4.441-9.661-6.979-15.617-6.979h-83.837c-5.956 0-11.646 2.539-15.617 6.979s-5.875 10.377-5.219 16.293l13.222 118.897c-21.471 15.617-34.303 40.322-34.303 67.422 0 46.236 37.599 83.837 83.837 83.837s83.837-37.599 83.837-83.837c0-27.1-12.833-51.805-34.303-67.422l13.22-118.897zM544.935 582.737h-335.344v83.837c0 92.453 75.219 167.672 167.672 167.672s167.672-75.219 167.672-167.672v-83.837z" />
<glyph unicode="&#xe90e;" glyph-name="envelope" horiz-adv-x="1229" d="M117.854 660.65c15.533-10.961 62.354-43.514 140.467-97.644 78.115-54.13 137.957-95.808 179.527-125.038 4.567-3.204 14.27-10.169 29.114-20.904 14.846-10.742 27.182-19.423 36.998-26.045 9.823-6.619 21.698-14.045 35.638-22.265 13.934-8.213 27.070-14.39 39.403-18.48 12.336-4.123 23.755-6.166 34.26-6.166h1.38c10.505 0 21.929 2.045 34.265 6.166 12.329 4.090 25.476 10.274 39.398 18.48 13.93 8.23 25.805 15.648 35.628 22.265 9.823 6.622 22.15 15.302 37.001 26.045 14.842 10.745 24.557 17.7 29.124 20.904 42.019 29.23 148.922 103.464 320.676 222.696 33.346 23.287 61.205 51.386 83.585 84.278 22.397 32.878 33.583 67.368 33.583 103.452 0 30.154-10.855 55.966-32.556 77.434-21.698 21.473-47.398 32.203-77.081 32.203h-1008.636c-35.172 0-62.239-11.875-81.197-35.626-18.955-23.755-28.433-53.448-28.433-89.076 0-28.778 12.566-59.964 37.687-93.538 25.118-33.576 51.85-59.959 80.167-79.142zM1159.373 587.34c-149.818-101.402-263.578-180.209-341.225-236.402-26.038-19.178-47.16-34.15-63.382-44.878-16.222-10.735-37.795-21.698-64.752-32.885-26.947-11.203-52.061-16.788-75.362-16.788h-1.387c-23.297 0-48.425 5.585-75.372 16.788-26.947 11.186-48.535 22.15-64.752 32.885-16.212 10.728-37.342 25.699-63.377 44.878-61.673 45.221-175.188 124.032-340.55 236.402-26.045 17.347-49.114 37.231-69.214 59.611v-544.044c0-30.168 10.73-55.966 32.203-77.436 21.468-21.478 47.282-32.213 77.434-32.213h1008.638c30.144 0 55.956 10.735 77.426 32.213 21.478 21.478 32.203 47.266 32.203 77.436v544.044c-19.646-21.917-42.48-41.801-68.532-59.611z" />
<glyph unicode="&#xe90f;" glyph-name="fb" horiz-adv-x="478" d="M103.288 761.684c0-25.805 0-140.985 0-140.985h-103.288v-172.397h103.288v-512.302h212.176v512.288h142.38c0 0 13.335 82.663 19.798 173.047-18.532 0-161.376 0-161.376 0s0 100.295 0 117.875c0 17.618 23.134 41.316 45.998 41.316 22.822 0 70.989 0 115.602 0 0 23.472 0 104.573 0 179.475-59.557 0-127.312 0-157.179 0-222.644 0.012-217.4-172.556-217.4-198.316z" />
<glyph unicode="&#xe910;" glyph-name="pencil" d="M864 960c88.364 0 160-71.634 160-160 0-36.020-11.91-69.258-32-96l-64-64-224 224 64 64c26.742 20.090 59.978 32 96 32zM64 224l-64-288 288 64 592 592-224 224-592-592zM715.578 596.422l-448-448-55.156 55.156 448 448 55.156-55.156z" />
<glyph unicode="&#xe92f;" glyph-name="folder" d="M448 832l128-128h448v-704h-1024v832z" />
<glyph unicode="&#xe933;" glyph-name="folder-download" d="M576 704l-128 128h-448v-832h1024v704h-448zM512 96l-224 224h160v256h128v-256h160l-224-224z" />
<glyph unicode="&#xe94e;" glyph-name="clock" d="M658.744 210.744l-210.744 210.746v282.51h128v-229.49l173.256-173.254zM512 960c-282.77 0-512-229.23-512-512s229.23-512 512-512 512 229.23 512 512-229.23 512-512 512zM512 64c-212.078 0-384 171.922-384 384s171.922 384 384 384c212.078 0 384-171.922 384-384s-171.922-384-384-384z" />
<glyph unicode="&#xe94f;" glyph-name="clock2" d="M512 960c-282.77 0-512-229.23-512-512s229.23-512 512-512 512 229.23 512 512-229.23 512-512 512zM658.744 210.744l-210.744 210.746v282.51h128v-229.49l173.256-173.254-90.512-90.512z" />
<glyph unicode="&#xe953;" glyph-name="calendar" d="M320 576h128v-128h-128zM512 576h128v-128h-128zM704 576h128v-128h-128zM128 192h128v-128h-128zM320 192h128v-128h-128zM512 192h128v-128h-128zM320 384h128v-128h-128zM512 384h128v-128h-128zM704 384h128v-128h-128zM128 384h128v-128h-128zM832 960v-64h-128v64h-448v-64h-128v64h-128v-1024h960v1024h-128zM896 0h-832v704h832v-704z" />
<glyph unicode="&#xe994;" glyph-name="cog" d="M933.79 349.75c-53.726 93.054-21.416 212.304 72.152 266.488l-100.626 174.292c-28.75-16.854-62.176-26.518-97.846-26.518-107.536 0-194.708 87.746-194.708 195.99h-201.258c0.266-33.41-8.074-67.282-25.958-98.252-53.724-93.056-173.156-124.702-266.862-70.758l-100.624-174.292c28.97-16.472 54.050-40.588 71.886-71.478 53.638-92.908 21.512-211.92-71.708-266.224l100.626-174.292c28.65 16.696 61.916 26.254 97.4 26.254 107.196 0 194.144-87.192 194.7-194.958h201.254c-0.086 33.074 8.272 66.57 25.966 97.218 53.636 92.906 172.776 124.594 266.414 71.012l100.626 174.29c-28.78 16.466-53.692 40.498-71.434 71.228zM512 240.668c-114.508 0-207.336 92.824-207.336 207.334 0 114.508 92.826 207.334 207.336 207.334 114.508 0 207.332-92.826 207.332-207.334-0.002-114.51-92.824-207.334-207.332-207.334z" />
<glyph unicode="&#xe9ac;" glyph-name="bin" d="M128 640v-640c0-35.2 28.8-64 64-64h576c35.2 0 64 28.8 64 64v640h-704zM320 64h-64v448h64v-448zM448 64h-64v448h64v-448zM576 64h-64v448h64v-448zM704 64h-64v448h64v-448zM848 832h-208v80c0 26.4-21.6 48-48 48h-224c-26.4 0-48-21.6-48-48v-80h-208c-26.4 0-48-21.6-48-48v-80h832v80c0 26.4-21.6 48-48 48zM576 832h-192v63.198h192v-63.198z" />
<glyph unicode="&#xe9ce;" glyph-name="eye" d="M512 768c-223.318 0-416.882-130.042-512-320 95.118-189.958 288.682-320 512-320 223.312 0 416.876 130.042 512 320-95.116 189.958-288.688 320-512 320zM764.45 598.296c60.162-38.374 111.142-89.774 149.434-150.296-38.292-60.522-89.274-111.922-149.436-150.296-75.594-48.218-162.89-73.704-252.448-73.704-89.56 0-176.858 25.486-252.452 73.704-60.158 38.372-111.138 89.772-149.432 150.296 38.292 60.524 89.274 111.924 149.434 150.296 3.918 2.5 7.876 4.922 11.86 7.3-9.96-27.328-15.41-56.822-15.41-87.596 0-141.382 114.616-256 256-256 141.382 0 256 114.618 256 256 0 30.774-5.452 60.268-15.408 87.598 3.978-2.378 7.938-4.802 11.858-7.302v0zM512 544c0-53.020-42.98-96-96-96s-96 42.98-96 96 42.98 96 96 96 96-42.982 96-96z" />
<glyph unicode="&#xe9d7;" glyph-name="star-empty" d="M1024 562.95l-353.78 51.408-158.22 320.582-158.216-320.582-353.784-51.408 256-249.538-60.432-352.352 316.432 166.358 316.432-166.358-60.434 352.352 256.002 249.538zM512 206.502l-223.462-117.48 42.676 248.83-180.786 176.222 249.84 36.304 111.732 226.396 111.736-226.396 249.836-36.304-180.788-176.222 42.678-248.83-223.462 117.48z" />
<glyph unicode="&#xe9d9;" glyph-name="star-full" d="M1024 562.95l-353.78 51.408-158.22 320.582-158.216-320.582-353.784-51.408 256-249.538-60.432-352.352 316.432 166.358 316.432-166.358-60.434 352.352 256.002 249.538z" />
<glyph unicode="&#xea13;" glyph-name="enter" d="M384 448h-320v128h320v128l192-192-192-192zM1024 960v-832l-384-192v192h-384v256h64v-192h320v576l256 128h-576v-256h-64v320z" />
<glyph unicode="&#xea14;" glyph-name="exit" d="M768 320v128h-320v128h320v128l192-192zM704 384v-256h-320v-192l-384 192v832h704v-320h-64v256h-512l256-128v-576h256v192z" />
</font>
</defs>
</svg>
