<?xml version="1.0" encoding="UTF-8"?>
<svg width="80px" height="42px" viewBox="0 0 80 42" version="1.1" xmlns="http://www.w3.org/2000/svg" xmlns:xlink="http://www.w3.org/1999/xlink">
    <!-- Generator: Sketch 49 (51002) - http://www.bohemiancoding.com/sketch -->
    <title>Group 2</title>
    <desc>Created with Sketch.</desc>
    <defs></defs>
    <g id="Page-1" stroke="none" stroke-width="1" fill="none" fill-rule="evenodd" fill-opacity="0.2">
        <g id="Form-start" transform="translate(-1038.000000, -432.000000)" fill="#24B3A0" fill-rule="nonzero">
            <g id="Group-4" transform="translate(773.000000, 427.000000)">
                <g id="Group-2" transform="translate(265.000000, 5.000000)">
                    <path d="M40.0001277,21 C44.9704104,21 49,16.2990366 49,10.5000613 C49,4.70096335 47.6770266,0 40.0001277,0 C32.3232289,0 31,4.70096335 31,10.5000613 C31,16.2990366 35.0295896,21 40.0001277,21 Z" id="Shape"></path>
                    <path d="M55.982087,35.7091432 C55.8251984,25.6709335 54.5323395,22.8105886 44.6389757,21 C44.6389757,21 43.2463333,22.7994949 40.0003607,22.7994949 C36.7543881,22.7994949 35.3615052,21 35.3615052,21 C25.5761,22.7908394 24.2046165,25.60876 24.0242847,35.3830373 C24.0094975,36.1811738 24.0026449,36.2231104 24,36.1304598 C24.0006011,36.3040578 24.0013224,36.6251654 24.0013224,37.1850923 C24.0013224,37.1850923 26.3566963,42 40.0003607,42 C53.6437846,42 55.9993989,37.1850923 55.9993989,37.1850923 C55.9993989,36.8253396 55.9996393,36.5751829 56,36.4049983 C55.9973551,36.4622954 55.9920654,36.3512365 55.982087,35.7091432 Z" id="Shape"></path>
                    <path d="M71.000071,30 C73.7613391,30 76,27.3137352 76,24.0000351 C76,20.6862648 75.2650148,18 71.000071,18 C66.7351272,18 66,20.6862648 66,24.0000351 C66,27.3137352 68.2386609,30 71.000071,30 Z" id="Shape"></path>
                    <path d="M79.989924,38.4052247 C79.9016741,32.6691048 79.174441,31.0346221 73.6094238,30 C73.6094238,30 72.8260625,31.0282828 71.0002029,31.0282828 C69.1743433,31.0282828 68.3908467,30 68.3908467,30 C62.8865563,31.0233368 62.1150968,32.6335772 62.0136601,38.2188784 C62.0053423,38.6749565 62.0014877,38.6989202 62,38.645977 C62.0003381,38.7451759 62.0007439,38.928666 62.0007439,39.2486242 C62.0007439,39.2486242 63.3256417,42 71.0002029,42 C78.6746288,42 79.9996619,39.2486242 79.9996619,39.2486242 C79.9996619,39.0430512 79.9997971,38.9001045 80,38.8028561 C79.9985123,38.8355974 79.9955368,38.7721351 79.989924,38.4052247 Z" id="Shape"></path>
                    <path d="M9.00007096,30 C11.7613391,30 14,27.3137352 14,24.0000351 C14,20.6862648 13.2650148,18 9.00007096,18 C4.73512716,18 4,20.6862648 4,24.0000351 C4,27.3137352 6.23866088,30 9.00007096,30 Z" id="Shape"></path>
                    <path d="M17.989924,38.4052247 C17.9016741,32.6691048 17.174441,31.0346221 11.6094238,30 C11.6094238,30 10.8260625,31.0282828 9.00020287,31.0282828 C7.17434329,31.0282828 6.39084666,30 6.39084666,30 C0.886556264,31.0233368 0.115096778,32.6335772 0.0136601346,38.2188784 C0.00534232989,38.6749565 0.00148773744,38.6989202 0,38.645977 C0.000338122145,38.7451759 0.000743868718,38.928666 0.000743868718,39.2486242 C0.000743868718,39.2486242 1.32564168,42 9.00020287,42 C16.6746288,42 17.9996619,39.2486242 17.9996619,39.2486242 C17.9996619,39.0430512 17.9997971,38.9001045 18,38.8028561 C17.9985123,38.8355974 17.9955368,38.7721351 17.989924,38.4052247 Z" id="Shape"></path>
                </g>
            </g>
        </g>
    </g>
</svg>