<?xml version="1.0" encoding="UTF-8"?>
<svg width="18px" height="15px" viewBox="0 0 18 15" version="1.1" xmlns="http://www.w3.org/2000/svg" xmlns:xlink="http://www.w3.org/1999/xlink">
    <!-- Generator: Sketch 49 (51002) - http://www.bohemiancoding.com/sketch -->
    <title>envelope</title>
    <desc>Created with Sketch.</desc>
    <defs></defs>
    <g id="Page-1" stroke="none" stroke-width="1" fill="none" fill-rule="evenodd">
        <g id="Login-modal" transform="translate(-804.000000, -577.000000)" fill="#E2E2E2" fill-rule="nonzero">
            <g id="Group-6" transform="translate(751.000000, 298.000000)">
                <g id="Group-6-Copy" transform="translate(37.000000, 263.000000)">
                    <g id="envelope" transform="translate(16.000000, 16.000000)">
                        <path d="M1.72638281,4.38500391 C1.95391406,4.5455625 2.63977734,5.02242188 3.78400781,5.81533594 C4.92827344,6.60825 5.80485937,7.21877344 6.41380078,7.64694141 C6.48070312,7.693875 6.62283984,7.79589844 6.84028125,7.95315234 C7.05775781,8.11051172 7.23846094,8.23767188 7.38225,8.33466797 C7.52614453,8.43162891 7.70009766,8.54040234 7.90428516,8.6608125 C8.10840234,8.78111719 8.3008125,8.87160938 8.48148047,8.93151563 C8.66218359,8.99191406 8.82945703,9.02183203 8.98333594,9.02183203 L8.99342578,9.02183203 L9.00355078,9.02183203 C9.15742969,9.02183203 9.32477344,8.99187891 9.50547656,8.93151563 C9.68607422,8.87160938 9.87866016,8.78101172 10.0826016,8.6608125 C10.2866484,8.54026172 10.4606016,8.43159375 10.6044961,8.33466797 C10.7483906,8.23767188 10.9289531,8.11051172 11.1465,7.95315234 C11.3639063,7.79575781 11.5062188,7.693875 11.5731211,7.64694141 C12.1886367,7.21877344 13.7546016,6.13135547 16.2705234,4.38479297 C16.7589844,4.04367188 17.1670781,3.6320625 17.4949102,3.15024609 C17.8229883,2.66864063 17.9868516,2.16341016 17.9868516,1.63483594 C17.9868516,1.19313281 17.8278398,0.815027344 17.509957,0.500554688 C17.1921094,0.186011719 16.8156562,0.028828125 16.3808438,0.028828125 L1.60590234,0.028828125 C1.0906875,0.028828125 0.694195313,0.20278125 0.416496094,0.5506875 C0.138832031,0.898664063 0,1.33361719 0,1.85551172 C0,2.27707031 0.184078125,2.73389063 0.552058594,3.22569141 C0.920003906,3.71752734 1.31157422,4.104 1.72638281,4.38500391 Z" id="Shape"></path>
                        <path d="M16.983,5.45888672 C14.7884062,6.94427344 13.122,8.09866406 11.9845898,8.9218125 C11.6031797,9.20274609 11.2937695,9.42205078 11.0561484,9.57919922 C10.8185273,9.73645313 10.5025078,9.89704688 10.1076328,10.0609102 C9.71289844,10.2250195 9.34502344,10.3068281 9.00369141,10.3068281 L8.99346094,10.3068281 L8.98337109,10.3068281 C8.64210937,10.3068281 8.27402344,10.2250195 7.87928906,10.0609102 C7.48455469,9.89704688 7.16832422,9.73645313 6.93077344,9.57919922 C6.69329297,9.42205078 6.38377734,9.20274609 6.00240234,8.9218125 C5.09899219,8.25939844 3.43617187,7.1049375 1.01387109,5.45888672 C0.632355469,5.20477734 0.294433594,4.91350781 0,4.58567578 L0,12.5550703 C0,12.9969844 0.157183594,13.3748789 0.471726562,13.6893867 C0.786199219,14.004 1.16433984,14.1612539 1.60600781,14.1612539 L16.3809844,14.1612539 C16.8225469,14.1612539 17.2006523,14.004 17.5151602,13.6893867 C17.8297734,13.3747734 17.9868867,12.9970195 17.9868867,12.5550703 L17.9868867,4.58567578 C17.6990977,4.90672266 17.3646211,5.19799219 16.983,5.45888672 Z" id="Shape"></path>
                    </g>
                </g>
            </g>
        </g>
    </g>
</svg>