<?xml version="1.0" encoding="UTF-8"?>
<svg width="14px" height="30px" viewBox="0 0 14 30" version="1.1" xmlns="http://www.w3.org/2000/svg" xmlns:xlink="http://www.w3.org/1999/xlink">
    <!-- Generator: Sketch 49 (51002) - http://www.bohemiancoding.com/sketch -->
    <title>Facebook</title>
    <desc>Created with Sketch.</desc>
    <defs></defs>
    <g id="Page-1" stroke="none" stroke-width="1" fill="none" fill-rule="evenodd">
        <g id="Login-modal" transform="translate(-827.000000, -438.000000)" fill="#9B9B9B" fill-rule="nonzero">
            <g id="Group-6" transform="translate(751.000000, 298.000000)">
                <path d="M79.026026,145.810045 C79.026026,146.566057 79.026026,149.940457 79.026026,149.940457 L76,149.940457 L76,154.991142 L79.026026,154.991142 L79.026026,170 L85.2421259,170 L85.2421259,154.99156 L89.4134176,154.99156 C89.4134176,154.99156 89.8040773,152.569796 89.9934437,149.921834 C89.4505236,149.921834 85.2656311,149.921834 85.2656311,149.921834 C85.2656311,149.921834 85.2656311,146.983507 85.2656311,146.468478 C85.2656311,145.952333 85.9433744,145.258049 86.6132362,145.258049 C87.2818425,145.258049 88.6929883,145.258049 90,145.258049 C90,144.570391 90,142.194382 90,140 C88.2551788,140 86.2701448,140 85.3951535,140 C78.8723707,139.999651 79.026026,145.055358 79.026026,145.810045 Z" id="Facebook"></path>
            </g>
        </g>
    </g>
</svg>