<?xml version="1.0" encoding="UTF-8"?>
<svg width="14px" height="19px" viewBox="0 0 14 19" version="1.1" xmlns="http://www.w3.org/2000/svg" xmlns:xlink="http://www.w3.org/1999/xlink">
    <!-- Generator: Sketch 49 (51002) - http://www.bohemiancoding.com/sketch -->
    <title>lock</title>
    <desc>Created with Sketch.</desc>
    <defs></defs>
    <g id="Page-1" stroke="none" stroke-width="1" fill="none" fill-rule="evenodd">
        <g id="Login-modal" transform="translate(-808.000000, -630.000000)" fill="#E2E2E2" fill-rule="nonzero">
            <g id="Group-6" transform="translate(751.000000, 298.000000)">
                <g id="Group-5" transform="translate(37.000000, 320.000000)">
                    <g id="lock" transform="translate(20.000000, 12.000000)">
                        <path d="M13.611099,7 L12.4444323,7 L12.4444323,5.44443229 C12.4444323,2.44234375 10.002125,0 7,0 C3.997875,0 1.55556771,2.44234375 1.55556771,5.44443229 L1.55556771,7 L0.388901042,7 C0.173942708,7 0,7.17394271 0,7.38890104 L0,17.1111354 C0,17.9690365 0.697630208,18.6666667 1.55556771,18.6666667 L12.4444687,18.6666667 C13.3023698,18.6666667 14,17.9690365 14,17.111099 L14,7.38890104 C14,7.17394271 13.8260573,7 13.611099,7 Z M8.16440625,15.1237552 C8.17654687,15.2334948 8.14125521,15.3436354 8.06757292,15.4260677 C7.99389062,15.5084635 7.88830729,15.5555677 7.77780208,15.5555677 L6.22223437,15.5555677 C6.11172917,15.5555677 6.00614583,15.5084635 5.93246354,15.4260677 C5.85878125,15.3436719 5.82345312,15.2335312 5.83563021,15.1237552 L6.08095833,12.9176615 C5.68257812,12.6278906 5.44446875,12.1695 5.44446875,11.6666667 C5.44446875,10.8087656 6.14209896,10.111099 7.00003646,10.111099 C7.85797396,10.111099 8.55560417,10.8087292 8.55560417,11.6666667 C8.55560417,12.1695 8.31749479,12.6278906 7.91911458,12.9176615 L8.16440625,15.1237552 Z M10.111099,7 L3.88890104,7 L3.88890104,5.44443229 C3.88890104,3.72899479 5.2845625,2.33333333 7,2.33333333 C8.7154375,2.33333333 10.111099,3.72899479 10.111099,5.44443229 L10.111099,7 Z" id="Shape"></path>
                    </g>
                </g>
            </g>
        </g>
    </g>
</svg>