<?xml version="1.0" encoding="UTF-8"?>
<svg width="14px" height="19px" viewBox="0 0 14 19" version="1.1" xmlns="http://www.w3.org/2000/svg" xmlns:xlink="http://www.w3.org/1999/xlink">
    <!-- Generator: Sketch 49 (51002) - http://www.bohemiancoding.com/sketch -->
    <title>man-user</title>
    <desc>Created with Sketch.</desc>
    <defs></defs>
    <g id="Page-1" stroke="none" stroke-width="1" fill="none" fill-rule="evenodd">
        <g id="New-form" transform="translate(-1473.000000, -23.000000)" fill="#E2E2E2" fill-rule="nonzero">
            <g id="Group-4" transform="translate(1473.000000, 23.000000)">
                <g id="man-user">
                    <path d="M7.00005677,9 C9.2090713,9 11,6.98530142 11,4.50002629 C11,2.01469858 10.4120118,0 7.00005677,0 C3.58810173,0 3,2.01469858 3,4.50002629 C3,6.98530142 4.7909287,9 7.00005677,9 Z" id="Shape"></path>
                    <path d="M13.9921631,16.3039185 C13.9235243,12.0018286 13.3578985,10.7759666 9.02955188,10 C9.02955188,10 8.4202708,10.7712121 7.00015779,10.7712121 C5.58004478,10.7712121 4.97065851,10 4.97065851,10 C0.689543761,10.7675026 0.0895197163,11.9751829 0.0106245492,16.1641588 C0.00415514547,16.5062173 0.00115712912,16.5241902 0,16.4844828 C0.00026298389,16.5588819 0.000578564559,16.6964995 0.000578564559,16.9364681 C0.000578564559,16.9364681 1.03105464,19 7.00015779,19 C12.9691557,19 13.999737,16.9364681 13.999737,16.9364681 C13.999737,16.7822884 13.9998422,16.6750784 14,16.6021421 C13.9988429,16.626698 13.9965286,16.5791014 13.9921631,16.3039185 Z" id="Shape"></path>
                </g>
            </g>
        </g>
    </g>
</svg>