<?xml version="1.0" encoding="UTF-8"?>
<svg width="20px" height="20px" viewBox="0 0 20 20" version="1.1" xmlns="http://www.w3.org/2000/svg" xmlns:xlink="http://www.w3.org/1999/xlink">
    <!-- Generator: Sketch 49 (51002) - http://www.bohemiancoding.com/sketch -->
    <title>Shape</title>
    <desc>Created with Sketch.</desc>
    <defs></defs>
    <g id="Page-1" stroke="none" stroke-width="1" fill="none" fill-rule="evenodd">
        <g id="New-form" transform="translate(-847.000000, -559.000000)" fill="#9B9B9B" fill-rule="nonzero">
            <g id="Group-6" transform="translate(847.000000, 558.000000)">
                <path d="M18.6592085,5.9803664 C17.7649522,4.44835292 16.5519506,3.23535689 15.0198845,2.34115029 C13.4875448,1.44698929 11.814782,1 10.0003192,1 C8.18603888,1 6.51277444,1.44698929 4.98070836,2.34115029 C3.44855107,3.23522007 2.23554952,4.4482161 1.34129322,5.9803664 C0.446991326,7.51260792 0,9.18586472 0,11 C0,12.8142265 0.447128146,14.4872097 1.3411564,16.0195424 C2.23536709,17.5515559 3.44836865,18.7645519 4.98052594,19.6588497 C6.51277444,20.5529651 8.18590206,21 10.0001368,21 C11.8143716,21 13.4876816,20.5529651 15.0198389,19.6588497 C16.551905,18.7648711 17.7648609,17.5515559 18.659026,16.0195424 C19.5530543,14.4873465 20,12.8141353 20,11 C20.0000456,9.1856823 19.5530543,7.51237988 18.6592085,5.9803664 Z M15.8336906,11.8333219 C15.8336906,12.0589829 15.7510968,12.2545435 15.5861374,12.4192286 C15.4210411,12.5840505 15.2257988,12.6667807 15.000228,12.6667807 L11.6667883,12.6667807 L11.6667883,15.999886 C11.6667883,16.2255469 11.5841033,16.4209252 11.4192351,16.5861119 C11.2544581,16.7508882 11.0590789,16.8333447 10.8333257,16.8333447 L9.16671987,16.8333447 C8.94105789,16.8333447 8.74572437,16.7508882 8.58081052,16.5861119 C8.41585107,16.4209708 8.33334854,16.2255925 8.33334854,15.999886 L8.33334854,12.6667807 L5,12.6667807 C4.77433802,12.6667807 4.57909571,12.5840961 4.41409065,12.4192286 C4.2491768,12.2545892 4.16671987,12.0590285 4.16671987,11.8333219 L4.16671987,10.1665412 C4.16671987,9.9408803 4.24922241,9.74554767 4.41409065,9.58063457 C4.5790501,9.41567587 4.77429241,9.33317371 5,9.33317371 L8.33348536,9.33317371 L8.33348536,5.99984038 C8.33348536,5.77413382 8.41598789,5.57893801 8.58094734,5.4139337 C8.74586119,5.2490206 8.94114911,5.16656405 9.16685669,5.16656405 L10.833645,5.16656405 C11.059307,5.16656405 11.2547317,5.24906621 11.4195543,5.4139337 C11.584377,5.5788924 11.6671075,5.77413382 11.6671075,5.99984038 L11.6671075,9.33317371 L15.000228,9.33317371 C15.22589,9.33317371 15.4212691,9.41567587 15.5861374,9.58063457 C15.7510968,9.74550206 15.8336906,9.94083469 15.8336906,10.1665412 L15.8336906,11.8333219 Z" id="Shape"></path>
            </g>
        </g>
    </g>
</svg>